<svg id="Layer_1" data-name="Layer 1" xmlns="http://www.w3.org/2000/svg" viewBox="0 0 146.67 41.46"><defs><style>.cls-1{fill:#fff;}.cls-2{fill:#00b399;}</style></defs><path class="cls-1" d="M138.56,16.62A13.24,13.24,0,0,0,126,7.5h0a13.22,13.22,0,0,0-4.13,25.77c-4.39-4.79-6.62-9-6.62-12.67a10.75,10.75,0,1,1,21.5,0c0,4.33-3.43,9.14-6.65,12.68A13.22,13.22,0,0,0,138.56,16.62Z" transform="translate(-0.04)"/><path class="cls-1" d="M126,0a20.73,20.73,0,1,0,20.73,20.73h0A20.75,20.75,0,0,0,126,0Zm0,38.66a17.94,17.94,0,1,1,17.94-17.94A17.94,17.94,0,0,1,126,38.66Z" transform="translate(-0.04)"/><path class="cls-2" d="M126,13.73a7.17,7.17,0,0,0-7.25,7.07v1.83a.23.23,0,0,0,.05.17l.1.3v.15a.88.88,0,0,1,0,.15l.06.15c.09.25.2.5.31.74l.06.14c.17.35.36.71.56,1.07l.15.26a.41.41,0,0,1,0,.09l.16.24c0,.08.09.15.14.23l.18.28h0l.19.28c.08.13.17.25.25.37a2,2,0,0,0,.17.23l.26.36.21.29.2.25.06.08c.21.27.43.54.65.8l.23.28.24.27.23.27.23.25.18.21.28.3c.19.19.37.39.55.58l.08.07h.06l.09.07h0l.1.06.14.06a1.52,1.52,0,0,0,.59.12h.77l.08-.05h0l.08-.06.07-.06a.28.28,0,0,0,.1-.09q.58-.62,1.2-1.32l.23-.26.23-.28.22-.26c.3-.37.61-.75.91-1.14.07-.09.13-.19.2-.27l.19-.27c.29-.4.57-.81.84-1.22l.16-.26c.08-.12.15-.24.22-.36l.17-.28q.16-.32.33-.6l.06-.13c.2-.38.38-.77.54-1.15a.24.24,0,0,1,.05-.14l.06-.17a1.34,1.34,0,0,0,.07-.18c.06-.17.12-.34.17-.52a3.1,3.1,0,0,0,.09-.36v-.32l.05-.3v-.36h0v-.48A7.16,7.16,0,0,0,126,13.73Zm0,10.18a3.53,3.53,0,1,1,3.53-3.53h0A3.53,3.53,0,0,1,126,23.91h0Z" transform="translate(-0.04)"/><path class="cls-1" d="M13.1,27.32c-4.46,0-7.34-3-7.34-7.49s2.88-7.49,7.34-7.49a6.51,6.51,0,0,1,5.83,3.1l5-2.88a12.55,12.55,0,0,0-10.8-5.83,13.1,13.1,0,0,0,0,26.2A12.45,12.45,0,0,0,23.9,27.15l-5-2.88A6.48,6.48,0,0,1,13.1,27.32Z" transform="translate(-0.04)"/><path class="cls-1" d="M37.33,13.93a6.19,6.19,0,0,0-5.15,2.19V7.23h-5.4v25.2h5.4V22.6c0-2.55,1.37-3.7,3.35-3.7a3,3,0,0,1,3.14,2.85,3,3,0,0,1,0,.42V32.43h5.4v-11C44.06,16.52,41,13.93,37.33,13.93Z" transform="translate(-0.04)"/><path class="cls-1" d="M60.84,14.43v1.72A6.79,6.79,0,0,0,55.48,14c-4.72,0-8.61,4.14-8.61,9.5S50.76,33,55.48,33a6.76,6.76,0,0,0,5.36-2.19v1.69h5.4v-18ZM56.55,27.82a4.39,4.39,0,1,1,4.29-4.49v.1A4.1,4.1,0,0,1,57,27.81,2.44,2.44,0,0,1,56.55,27.82Z" transform="translate(-0.04)"/><path class="cls-1" d="M70.2,14.43v18h5.4v-18Zm2.7-8.06a3.24,3.24,0,1,0,3.24,3.24A3.28,3.28,0,0,0,72.9,6.37Z" transform="translate(-0.04)"/><path class="cls-1" d="M90.11,13.93A6.16,6.16,0,0,0,85,16.12V14.43h-5.4v18H85V22.6c0-2.55,1.37-3.7,3.35-3.7a3,3,0,0,1,3.14,2.85,3,3,0,0,1,0,.42V32.43h5.4v-11C96.84,16.52,93.74,13.93,90.11,13.93Z" transform="translate(-0.04)"/></svg>